<?xml version="1.0" standalone="no"?>
<!DOCTYPE svg PUBLIC "-//W3C//DTD SVG 20010904//EN"
 "http://www.w3.org/TR/2001/REC-SVG-20010904/DTD/svg10.dtd">
<svg version="1.0" xmlns="http://www.w3.org/2000/svg"
 width="866.000000pt" height="866.000000pt" viewBox="0 0 866.000000 866.000000"
 preserveAspectRatio="xMidYMid meet">
<metadata>
Created by potrace 1.14, written by Peter Selinger 2001-2017
</metadata>
<g transform="translate(0.000000,866.000000) scale(0.100000,-0.100000)"
fill="#000000" stroke="none">
<path d="M3641 7959 c-1320 -71 -2507 -868 -3077 -2064 -455 -956 -470 -2073
-41 -3037 480 -1080 1466 -1868 2617 -2092 273 -53 364 -61 700 -61 249 0 343
4 450 18 448 61 796 166 1178 357 603 302 1092 747 1461 1330 64 100 204 369
256 490 261 606 351 1280 258 1942 -9 64 -19 122 -23 128 -10 17 -866 -12
-3130 -106 l-1125 -46 -955 -413 c-525 -227 -970 -416 -987 -420 -73 -15 -138
36 -126 99 12 61 48 81 721 395 358 168 651 305 649 307 -1 1 -359 -13 -796
-31 -437 -18 -809 -29 -828 -25 -75 17 -114 68 -91 118 18 36 69 68 120 76 24
3 537 40 1140 81 l1097 75 1733 811 c953 445 1737 814 1741 818 13 13 -302
326 -433 432 -540 437 -1155 704 -1825 793 -112 15 -443 37 -510 34 -16 0 -95
-5 -174 -9z m2532 -3609 c1 -117 -4 -246 -12 -300 -94 -693 -460 -1283 -1030
-1661 -286 -190 -598 -310 -952 -366 -159 -25 -519 -25 -674 0 -514 84 -951
305 -1308 660 -249 248 -452 575 -559 903 -66 199 -65 214 0 84 132 -261 271
-449 478 -650 243 -235 484 -392 784 -508 442 -173 926 -211 1385 -111 937
205 1663 959 1835 1906 11 60 23 150 26 202 12 158 26 72 27 -159z"/>
<path d="M8015 7386 c-41 -13 -1104 -522 -1118 -536 -5 -4 18 -40 50 -81 33
-41 85 -111 117 -156 32 -46 60 -83 63 -83 2 0 243 100 534 222 350 146 540
231 560 249 20 18 29 37 29 58 0 38 -38 140 -86 231 -53 101 -79 118 -149 96z"/>
<path d="M6200 6133 c-834 -359 -2249 -972 -2280 -988 -23 -12 -22 -13 20 -9
25 3 432 31 905 64 1309 92 2395 170 2442 176 l42 5 -50 141 c-95 271 -229
546 -376 773 -37 58 -72 104 -78 104 -5 -1 -287 -120 -625 -266z"/>
<path d="M7973 5431 c-172 -15 -316 -30 -319 -34 -3 -3 8 -63 24 -134 17 -70
36 -157 43 -193 6 -36 14 -68 18 -72 9 -9 660 11 704 23 61 16 71 43 70 176
-2 148 -16 216 -50 243 -34 26 -88 25 -490 -9z"/>
</g>
</svg>
